Coordinates
version=1
nRows=65
nColumns=12
inDegrees=yes

Units are S.I. units (second, meters, Newtons, ...)
Angles are in degrees

endheader
time	SC_y	SC_z	SC_x	AC_y	AC_z	AC_x	GH_y	GH_z	GH_yy	EL_x	PS_y
       0.0              -49.14          38.01          34.14          63.98         -11.32         -2.113         -18.39          -2.75         -61.23          9.248          22.32
   0.02419              -49.13          38.01          34.15          63.98         -11.33         -2.111         -18.39         -2.738         -61.21          9.252          22.33
   0.04837              -49.13           38.0          34.15          63.97         -11.33         -2.109          -18.4         -2.724         -61.18          9.257          22.34
   0.07256              -49.13           38.0          34.16          63.97         -11.33         -2.107          -18.4         -2.709         -61.15          9.262          22.35
   0.09675              -49.12           38.0          34.17          63.96         -11.33         -2.105         -18.41         -2.694         -61.12          9.267          22.36
    0.1209              -49.12          37.99          34.17          63.96         -11.33         -2.102         -18.41         -2.678         -61.09          9.273          22.37
    0.1451              -49.12          37.99          34.18          63.95         -11.33           -2.1         -18.42          -2.66         -61.05          9.279          22.38
    0.1693              -49.11          37.98          34.19          63.95         -11.33         -2.097         -18.43         -2.641         -61.01          9.285          22.39
    0.1935              -49.11          37.98           34.2          63.94         -11.33         -2.095         -18.43         -2.621         -60.97          9.292           22.4
    0.2177               -49.1          37.97          34.21          63.93         -11.33         -2.092         -18.44           -2.6         -60.93          9.299          22.42
    0.2419               -49.1          37.97          34.22          63.92         -11.33         -2.088         -18.45         -2.576         -60.88          9.307          22.43
    0.2661              -49.09          37.96          34.23          63.91         -11.33         -2.085         -18.46         -2.551         -60.83          9.316          22.45
    0.2902              -49.09          37.95          34.24           63.9         -11.33         -2.081         -18.47         -2.524         -60.78          9.325          22.47
    0.3144              -49.08          37.95          34.25          63.89         -11.33         -2.077         -18.48         -2.495         -60.72          9.335          22.48
    0.3386              -49.07          37.94          34.26          63.88         -11.33         -2.073         -18.49         -2.464         -60.66          9.345           22.5
    0.3628              -49.07          37.93          34.28          63.87         -11.33         -2.068          -18.5          -2.43         -60.59          9.357          22.53
     0.387              -49.06          37.92          34.29          63.86         -11.33         -2.063         -18.52         -2.393         -60.52           9.37          22.55
    0.4112              -49.05          37.91          34.31          63.84         -11.33         -2.057         -18.53         -2.352         -60.44          9.383          22.58
    0.4354              -49.04           37.9          34.33          63.83         -11.34         -2.051         -18.55         -2.308         -60.35          9.398           22.6
    0.4595              -49.03          37.88          34.35          63.81         -11.34         -2.045         -18.56          -2.26         -60.25          9.415          22.63
    0.4837              -49.02          37.87          34.37          63.79         -11.34         -2.037         -18.58         -2.207         -60.15          9.433          22.67
    0.5079               -49.0          37.86          34.39          63.77         -11.34         -2.029          -18.6         -2.149         -60.03          9.453          22.71
    0.5321              -48.99          37.84          34.42          63.75         -11.34          -2.02         -18.63         -2.084          -59.9          9.475          22.75
    0.5563              -48.97          37.82          34.45          63.72         -11.34          -2.01         -18.65         -2.013         -59.76          9.499          22.79
    0.5805              -48.96           37.8          34.48           63.7         -11.34         -1.999         -18.68         -1.934          -59.6          9.526          22.84
    0.6047              -48.94          37.78          34.52          63.66         -11.35         -1.987         -18.71         -1.845         -59.42          9.556           22.9
    0.6289              -48.92          37.75          34.56          63.63         -11.35         -1.973         -18.75         -1.746         -59.23           9.59          22.96
     0.653              -48.89          37.72          34.61          63.59         -11.35         -1.958         -18.79         -1.634          -59.0          9.628          23.03
    0.6772              -48.86          37.69          34.66          63.55         -11.35          -1.94         -18.83         -1.508         -58.75          9.671          23.12
    0.7014              -48.83          37.65          34.72           63.5         -11.36          -1.92         -18.88         -1.365         -58.47          9.719          23.21
    0.7256               -48.8          37.61          34.79          63.44         -11.36         -1.898         -18.94         -1.202         -58.14          9.775          23.31
    0.7498              -48.76          37.56          34.86          63.37         -11.37         -1.872         -19.01         -1.014         -57.77          9.839          23.43
     0.774              -48.71          37.51          34.95          63.29         -11.37         -1.842         -19.09        -0.7979         -57.33          9.913          23.57
    0.7982              -48.66          37.44          35.06          63.21         -11.38         -1.807         -19.18        -0.5464         -56.83          9.998          23.73
    0.8223              -48.59          37.36          35.18           63.1         -11.39         -1.766         -19.28        -0.2521         -56.24           10.1          23.92
    0.8465              -48.52          37.27          35.32          62.98         -11.39         -1.718         -19.41        0.09488         -55.55          10.22          24.14
    0.8707              -48.43          37.17          35.49          62.83          -11.4         -1.661         -19.55         0.5072         -54.73          10.36           24.4
    0.8949              -48.32          37.04           35.7          62.66         -11.42         -1.592         -19.73          1.001         -53.74          10.52          24.72
    0.9191              -48.19          36.88          35.95          62.45         -11.43         -1.509         -19.94          1.599         -52.55          10.73           25.1
    0.9433              -48.03          36.69          36.25          62.19         -11.45         -1.408         -20.21           2.33         -51.09          10.98          25.57
    0.9675              -47.83          36.46          36.62          61.87         -11.47         -1.283         -20.53          3.231         -49.29          11.28          26.15
    0.9917              -47.59          36.17          37.09          61.48          -11.5         -1.127         -20.93          4.355         -47.05          11.67          26.86
     1.016              -47.28           35.8          37.68          60.98         -11.53        -0.9304         -21.44          5.771         -44.22          12.15          27.77
      1.04              -46.89          35.33          38.42          60.34         -11.58        -0.6807         -22.08          7.571         -40.63          12.76          28.92
     1.064              -46.39          34.74          39.38          59.53         -11.63        -0.3611          -22.9          9.875         -36.03          13.55          30.39
     1.088              -45.74          33.97          40.61          58.49          -11.7         0.0491         -23.96          12.83         -30.12          14.55          32.28
     1.113              -44.92          32.99          42.17          57.16          -11.8          0.573         -25.31          16.61         -22.59          15.84           34.7
     1.137              -43.88          31.76          44.14          55.48         -11.91          1.232         -27.01          21.36         -13.11          17.45          37.73
     1.161              -42.62          30.26          46.54          53.44         -12.05          2.035         -29.08          27.14         -1.552          19.42          41.43
     1.185              -41.16          28.51          49.32          51.07         -12.21          2.965         -31.48          33.85          11.84          21.71          45.72
     1.209              -39.58          26.63          52.34          48.51         -12.39          3.973         -34.08          41.12          26.34          24.18          50.36
     1.234               -38.0          24.75          55.35          45.95         -12.57           4.98         -36.68          48.38          40.84          26.65          55.01
     1.258              -36.54          23.01          58.13          43.59         -12.73          5.911         -39.08          55.09          54.23          28.93           59.3
     1.282              -35.28           21.5          60.53          41.54         -12.87          6.714         -41.15          60.87          65.78           30.9           63.0
     1.306              -34.24          20.27           62.5          39.87         -12.99          7.373         -42.85          65.62          75.26          32.52          66.03
      1.33              -33.42          19.29          64.07          38.54         -13.08          7.897          -44.2           69.4           82.8          33.81          68.45
     1.354              -32.78          18.52          65.29           37.5         -13.15          8.307         -45.25          72.36           88.7          34.81          70.34
     1.379              -32.28          17.93          66.25          36.68         -13.21          8.626         -46.08          74.66           93.3           35.6          71.81
     1.403              -31.88          17.46           67.0          36.05         -13.25          8.876         -46.72          76.46           96.9          36.21          72.96
     1.427              -31.57          17.09          67.58          35.55         -13.28          9.072         -47.23          77.88          99.72          36.69          73.87
     1.451              -31.33           16.8          68.05          35.15         -13.31          9.228         -47.63           79.0          102.0          37.07          74.58
     1.475              -31.13          16.57          68.42          34.83         -13.33          9.353         -47.95           79.9          103.8          37.38          75.16
       1.5              -30.97          16.38          68.73          34.58         -13.35          9.455         -48.21          80.63          105.2          37.63          75.63
     1.524              -30.84          16.22          68.97          34.37         -13.37          9.538         -48.43          81.23          106.4          37.83          76.01
     1.548              -30.74          16.09          69.18          34.19         -13.38          9.606          -48.6          81.73          107.4           38.0          76.33
